<svg xmlns="http://www.w3.org/2000/svg" aria-hidden="true" style="position:absolute;width:0;height:0;overflow:hidden">
  <defs>
<!-- burger -->
    <symbol id="icon-gg_menu-left" viewBox="0 0 32 32">
      <path d="M2.667 7.993c0-.733.595-1.327 1.327-1.327h10.68a1.326 1.326 0 0 1 0 2.654H3.994a1.326 1.326 0 0 1-1.327-1.327zm0 8.007c0-.733.595-1.327 1.327-1.327h24.013a1.326 1.326 0 0 1 0 2.654H3.994A1.326 1.326 0 0 1 2.667 16zm1.326 6.68a1.326 1.326 0 0 0 0 2.654h16.013a1.326 1.326 0 0 0 0-2.654H3.993z"/>
    </symbol>
    <symbol id="icon-arrow" viewBox="0 0 64 32">
      <path d="M44.444.604 64 16 44.444 31.396V18.667H0v-5.333h44.444V.605z"/>
    </symbol>

    <symbol id="header-line-below" viewBox="0 0 11264 32">
      <path fill="none" stroke="#f6f5ef" stroke-width="16" d="M0 16h11264" style="stroke:var(--color1, #f6f5ef)"/>
    </symbol>

      <symbol id="icon-menu" viewBox="0 0 32 32">
      <path fill="#F6F5EF" style="fill:var(--color1, #F6F5EF)" d="M2.667 7.993c0-.733.595-1.327 1.327-1.327h10.68a1.326 1.326 0 0 1 0 2.654H3.994a1.326 1.326 0 0 1-1.327-1.327zm0 8.007c0-.733.595-1.327 1.327-1.327h24.013a1.326 1.326 0 0 1 0 2.654H3.994A1.326 1.326 0 0 1 2.667 16zm1.326 6.68a1.326 1.326 0 0 0 0 2.654h16.013a1.326 1.326 0 0 0 0-2.654H3.993z"/>
    </symbol>
    <symbol id="icon-x" viewBox="0 0 32 32">
      <path fill="none" stroke="#F6F5EF" style="stroke:var(--color1, #F6F5EF)" stroke-linejoin="round" stroke-linecap="round" stroke-width="1.733" d="M24 8 8 24M8 8l16 16"/>
    </symbol>
    
        <symbol id="icon-prev-slide" viewBox="0 0 72 32">
            <path d="M22 0 0 16l22 16V18.771h50v-5.543H22V-.001z" />
        </symbol>
        <symbol id="icon-next-slide" viewBox="0 0 72 32">
            <path d="m50 0 22 16-22 16V18.771H0v-5.543h50V-.001z" />
        </symbol>

            <symbol id="mobilemenu-header-Ellipse-left" viewBox="0 0 35 32">
      <path fill="#939cac" d="M32.813 22.743c5.112 5.142 5.1 13.467-.027 18.595s-13.428 5.115-18.541-.027c-5.112-5.142-5.1-13.467.027-18.595s13.428-5.115 18.541.027z" opacity=".9" style="fill:var(--color1, #939cac)"/>
    </symbol>
    <symbol id="mobilemenu-header-Ellipse-right" viewBox="0 0 22 32">
      <path fill="#91afba" d="M5.976 16.11c3.621 3.642 3.613 9.539-.019 13.171s-9.512 3.623-13.133-.019c-3.621-3.642-3.613-9.539.019-13.171s9.512-3.623 13.133.019z" opacity=".6" style="fill:var(--color2, #91afba)"/>
    </symbol>

 <symbol id="left-Ellipse-herosection" viewBox="0 0 14 32">
      <path fill="#91afba" d="M3.947 10.258c3.183 3.166 3.189 8.305.015 11.478s-8.328 3.18-11.51.015c-3.183-3.166-3.189-8.305-.015-11.478s8.328-3.18 11.51-.015z" opacity=".6" style="fill:var(--color1, #91afba)"/>
    </symbol>
    <symbol id="center-Ellipse-herosection" viewBox="0 0 23 32">
      <path fill="#939cac" d="M13.213 10.258c3.182 3.166 3.189 8.305.015 11.478s-8.328 3.18-11.51.015c-3.183-3.166-3.189-8.305-.015-11.478s8.328-3.18 11.51-.015z" opacity=".9" style="fill:var(--color2, #939cac)"/>
    </symbol>
    <symbol id="right-Ellipse-herosection" viewBox="0 0 32 32">
      <path fill="#a6a9b2" d="M20.998 11.024c2.761 2.746 2.767 7.205.013 9.959s-7.225 2.759-9.986.013c-2.761-2.746-2.767-7.205-.013-9.959s7.225-2.759 9.986-.013z" opacity=".3" style="fill:var(--color3, #a6a9b2)"/>
    </symbol>

     <symbol id="Ellipse-choosesection" viewBox="0 0 14 32">
      <path fill="#91afba" d="M3.947 10.258c3.183 3.166 3.189 8.305.015 11.478s-8.328 3.18-11.51.015c-3.183-3.166-3.189-8.305-.015-11.478s8.328-3.18 11.51-.015z" opacity=".6" style="fill:var(--color1, #91afba)"/>
    </symbol>

 <symbol id="choosesection-curvedlines" viewBox="0 0 23 32">
      <path fill="#a6a9b2" d="M20.998 11.024c2.761 2.746 2.767 7.205.013 9.959s-7.225 2.759-9.986.013c-2.761-2.746-2.767-7.205-.013-9.959s7.225-2.759 9.986-.013z" opacity=".3" style="fill:var(--color3, #a6a9b2)"/>
    </symbol>

<symbol id="rentsection-Ellipse" viewBox="0 0 14 32">
      <path fill="#91afba" d="M3.947 10.258c3.183 3.166 3.189 8.305.015 11.478s-8.328 3.18-11.51.015c-3.183-3.166-3.189-8.305-.015-11.478s8.328-3.18 11.51-.015z" opacity=".6" style="fill:var(--color1, #91afba)"/>
    </symbol>
<symbol id="rent-mobile/tablet-close button-x" viewBox="0 0 32 32">
      <path fill="none" stroke="#f6f5ef" stroke-linecap="round" stroke-linejoin="round" stroke-width="2.08" d="M24 8 8 24M8 8l16 16" style="stroke:var(--color1, #f6f5ef)"/>
    </symbol>


    <symbol id="reviews-tablet-ellipse-green" viewBox="0 0 32 32">
      <path fill="#88b3b9" d="M32 16c0 8.837-7.163 16-16 16S0 24.837 0 16 7.163 0 16 0s16 7.163 16 16z" style="fill:var(--color1, #88b3b9)"/>
      <path fill="none" stroke="#93abae" stroke-width="2.462" d="M30.769 16c0 8.157-6.612 14.769-14.769 14.769S1.231 24.157 1.231 16 7.843 1.231 16 1.231 30.769 7.843 30.769 16z" style="stroke:var(--color2, #93abae)"/>
    </symbol>

    <symbol id="reviews-tablet-ellipse-black" viewBox="0 0 32 32">
      <path d="M23.579 14.316c0 6.046-4.901 10.947-10.947 10.947S1.685 20.362 1.685 14.316c0-6.046 4.901-10.947 10.947-10.947S23.579 8.27 23.579 14.316z"/>
    </symbol>

      <symbol id="button-arrow-up" viewBox="0 0 32 32">
      <path fill="#93abae" d="M3.765 0h24.471a3.765 3.765 0 0 1 3.765 3.765v24.471a3.765 3.765 0 0 1-3.765 3.765H3.765A3.765 3.765 0 0 1 0 28.236V3.765A3.765 3.765 0 0 1 3.765 0z" style="fill:var(--color1, #93abae)"/>
      <path fill="#f6f5ef" d="M12.235 13.255 16 8.941l3.765 4.314h-3.113v9.804h-1.304v-9.804h-3.113z" style="fill:var(--color2, #f6f5ef)"/>
    </symbol>

     <symbol id="icon-youtube" viewBox="0 0 32 32">
      <path fill="#f6f5ef" d="M24.24 6c-1.36-.08-4.16-.16-8.4-.16h-.56c-4.08 0-6.8.08-8.16.24-1.84.16-3.12.64-3.84 1.28-.64.56-1.12 1.6-1.28 2.96-.08.88-.16 2.72-.16 5.52v.4c0 2.64.08 4.48.24 5.36.24 1.28.64 2.24 1.44 2.8.8.64 2.16 1.04 4.08 1.2 1.36.08 4.16.16 8.4.16h.56c4.08 0 6.8-.08 8.16-.24 1.84-.16 3.12-.64 3.84-1.28.64-.56 1.12-1.6 1.28-2.96.08-.88.16-2.72.16-5.52v-.4c0-2.64-.08-4.48-.24-5.36-.24-1.28-.64-2.24-1.44-2.8-.8-.64-2.16-1.04-4.08-1.2zm-3.12 9.839-8.8 5.28v-10.56l8.8 5.28z" style="fill:var(--color1, #f6f5ef)"/>
    </symbol>

    <symbol id="40x40-footer-facebook" viewBox="0 0 32 32">
      <path fill="#f6f5ef" d="M18.425 10.801h1.462V8.328a20.221 20.221 0 0 0-2.131-.109c-2.116 0-3.562 1.291-3.562 3.656v2.038h-2.388v2.769h2.388v7.093h2.862v-7.093h2.38l.358-2.769h-2.738v-1.766c0-.817.218-1.346 1.369-1.346z" style="fill:var(--color1, #f6f5ef)"/>
      <path fill="none" stroke="#f6f5ef" stroke-width=".8" d="M4.8.4h22.4a4.4 4.4 0 0 1 4.4 4.4v22.4a4.4 4.4 0 0 1-4.4 4.4H4.8a4.4 4.4 0 0 1-4.4-4.4V4.8A4.4 4.4 0 0 1 4.8.4z" style="stroke:var(--color1, #f6f5ef)"/>
    </symbol>

    <symbol id="40x40-footer-youtube" viewBox="0 0 32 32">
      <path fill="#f6f5ef" d="M20.532 10.5c-.748-.044-2.288-.088-4.62-.088h-.308c-2.244 0-3.74.044-4.488.132-1.012.088-1.716.352-2.112.704-.352.308-.616.88-.704 1.628-.044.484-.088 1.496-.088 3.036v.22c0 1.452.044 2.464.132 2.948.132.704.352 1.232.792 1.54.44.352 1.188.572 2.244.66.748.044 2.288.088 4.62.088h.308c2.244 0 3.74-.044 4.488-.132 1.012-.088 1.716-.352 2.112-.704.352-.308.616-.88.704-1.628.044-.484.088-1.496.088-3.036v-.22c0-1.452-.044-2.464-.132-2.948-.132-.704-.352-1.232-.792-1.54-.44-.352-1.188-.572-2.244-.66zm-1.716 5.412-4.84 2.904v-5.808l4.84 2.904z" style="fill:var(--color1, #f6f5ef)"/>
      <path fill="none" stroke="#f6f5ef" stroke-width=".8" d="M4.8.4h22.4a4.4 4.4 0 0 1 4.4 4.4v22.4a4.4 4.4 0 0 1-4.4 4.4H4.8a4.4 4.4 0 0 1-4.4-4.4V4.8A4.4 4.4 0 0 1 4.8.4z" style="stroke:var(--color1, #f6f5ef)"/>
    </symbol>

    <symbol id="40x40-footer-instagram" viewBox="0 0 32 32">
      <path fill="#f6f5ef" d="M19.991 11.115a.902.902 0 0 0-.828.553.892.892 0 0 0 .194.977.892.892 0 0 0 .977.194.895.895 0 0 0-.343-1.724zm3.435 1.807a5.646 5.646 0 0 0-.343-1.814 3.69 3.69 0 0 0-.866-1.322 3.518 3.518 0 0 0-1.322-.859 5.462 5.462 0 0 0-1.814-.351c-.791-.045-1.045-.045-3.076-.045s-2.285 0-3.076.045a5.462 5.462 0 0 0-1.814.351 3.57 3.57 0 0 0-1.322.859c-.383.37-.676.822-.859 1.322a5.462 5.462 0 0 0-.351 1.814c-.045.791-.045 1.045-.045 3.076s0 2.285.045 3.076c.013.62.132 1.234.351 1.814.182.5.476.952.859 1.322a3.57 3.57 0 0 0 1.322.859c.58.219 1.194.338 1.814.351.791.045 1.045.045 3.076.045s2.285 0 3.076-.045a5.462 5.462 0 0 0 1.814-.351c.5-.182.952-.476 1.322-.859.382-.371.678-.823.866-1.322a5.65 5.65 0 0 0 .343-1.814c0-.791.045-1.045.045-3.076s0-2.285-.045-3.076zm-1.344 6.063a4.167 4.167 0 0 1-.254 1.389 2.286 2.286 0 0 1-.56.859 2.373 2.373 0 0 1-.859.56 4.193 4.193 0 0 1-1.389.254c-.747.037-1.023.045-2.987.045s-2.24 0-2.987-.045a4.3 4.3 0 0 1-1.449-.224 2.433 2.433 0 0 1-.821-.56 2.245 2.245 0 0 1-.553-.859 4.164 4.164 0 0 1-.299-1.419c0-.747-.045-1.023-.045-2.987s0-2.24.045-2.987a4.14 4.14 0 0 1 .261-1.419 2.24 2.24 0 0 1 .59-.821c.227-.257.507-.461.821-.597a4.29 4.29 0 0 1 1.419-.254c.747 0 1.023-.045 2.987-.045s2.24 0 2.987.045c.474.005.944.091 1.389.254.339.126.644.331.889.597.245.229.436.51.56.821.166.455.252.935.254 1.419.037.747.045 1.023.045 2.987s-.007 2.24-.045 2.987zm-6.078-6.817a3.826 3.826 0 0 0-3.534 2.37 3.824 3.824 0 0 0 .835 4.171 3.83 3.83 0 0 0 6.246-4.18 3.831 3.831 0 0 0-3.547-2.362zm0 6.316a2.487 2.487 0 1 1 .003-4.975 2.487 2.487 0 0 1-.004 4.976z" style="fill:var(--color1, #f6f5ef)"/>
      <path fill="none" stroke="#f6f5ef" stroke-width=".8" d="M4.8.4h22.4a4.4 4.4 0 0 1 4.4 4.4v22.4a4.4 4.4 0 0 1-4.4 4.4H4.8a4.4 4.4 0 0 1-4.4-4.4V4.8A4.4 4.4 0 0 1 4.8.4z" style="stroke:var(--color1, #f6f5ef)"/>
    </symbol>

    <symbol id="icon-Vector-2" viewBox="0 0 32 32">
      <path fill="#f6f5ef" d="M23.983 6.229a1.794 1.794 0 0 0-1.758 2.141 1.794 1.794 0 0 0 2.443 1.306 1.79 1.79 0 0 0 1.106-1.656 1.792 1.792 0 0 0-1.792-1.792zm6.869 3.614a11.33 11.33 0 0 0-.687-3.629 7.38 7.38 0 0 0-1.732-2.643 7.01 7.01 0 0 0-2.643-1.717 10.905 10.905 0 0 0-3.629-.702c-1.583-.09-2.091-.09-6.152-.09s-4.57 0-6.152.09a10.905 10.905 0 0 0-3.629.702 7.135 7.135 0 0 0-2.643 1.717 7.01 7.01 0 0 0-1.717 2.643 10.905 10.905 0 0 0-.702 3.629c-.09 1.583-.09 2.091-.09 6.153s0 4.57.09 6.152c.026 1.241.263 2.468.702 3.629.365 1 .952 1.904 1.717 2.643a7.135 7.135 0 0 0 2.643 1.717c1.161.439 2.388.676 3.629.702 1.583.09 2.091.09 6.152.09s4.57 0 6.152-.09a10.905 10.905 0 0 0 3.629-.702c1-.365 1.904-.952 2.643-1.717a7.243 7.243 0 0 0 1.732-2.643 11.33 11.33 0 0 0 .687-3.629c0-1.583.09-2.091.09-6.152s0-4.57-.09-6.153zm-2.688 12.126a8.39 8.39 0 0 1-.508 2.778 4.556 4.556 0 0 1-1.12 1.717 4.763 4.763 0 0 1-1.717 1.12 8.39 8.39 0 0 1-2.778.508c-1.493.075-2.046.09-5.973.09s-4.48 0-5.973-.09a8.566 8.566 0 0 1-2.897-.448 4.885 4.885 0 0 1-1.643-1.12 4.48 4.48 0 0 1-1.105-1.717 8.25 8.25 0 0 1-.597-2.837c0-1.493-.09-2.046-.09-5.973s0-4.48.09-5.973a8.281 8.281 0 0 1 .523-2.837 4.482 4.482 0 0 1 1.18-1.643 4.7 4.7 0 0 1 1.643-1.195 8.58 8.58 0 0 1 2.837-.508c1.493 0 2.046-.09 5.973-.09s4.48 0 5.973.09a8.39 8.39 0 0 1 2.778.508 4.56 4.56 0 0 1 1.777 1.195c.489.459.872 1.02 1.12 1.643a8.37 8.37 0 0 1 .508 2.837c.075 1.493.09 2.046.09 5.973s-.015 4.48-.09 5.973zM16.008 8.335a7.667 7.667 0 0 0-7.067 4.739 7.66 7.66 0 0 0 10.017 9.997 7.657 7.657 0 0 0 4.726-7.077 7.645 7.645 0 0 0-7.675-7.66zm0 12.634a4.979 4.979 0 0 1-4.595-3.07 4.975 4.975 0 0 1 3.624-6.78 4.974 4.974 0 0 1 5.564 6.781 4.965 4.965 0 0 1-2.691 2.691 4.97 4.97 0 0 1-1.903.379z" style="fill:var(--color1, #f6f5ef)"/>
    </symbol>

    <symbol id="icon-Vector" viewBox="0 0 32 32">
      <path fill="#f6f5ef" d="M21.65 5.602h2.924V.655a40.727 40.727 0 0 0-4.262-.218c-4.231 0-7.124 2.582-7.124 7.311v4.076H8.412v5.538h4.776v14.187h5.724V17.362h4.76l.716-5.538h-5.476V8.293c0-1.633.436-2.691 2.738-2.691z" style="fill:var(--color1, #f6f5ef)"/>
    </symbol>
    
     <symbol id="Ellipse-footer" viewBox="0 0 14 32">
      <path fill="#91afba" d="M3.947 10.258c3.183 3.166 3.189 8.305.015 11.478s-8.328 3.18-11.51.015c-3.183-3.166-3.189-8.305-.015-11.478s8.328-3.18 11.51-.015z" opacity=".6" style="fill:var(--color1, #91afba)"/>
    </symbol>

    </defs>
  </svg>
