<svg xmlns="http://www.w3.org/2000/svg" aria-hidden="true" style="position:absolute;width:0;height:0;overflow:hidden">
  <defs>
  <!-- burger -->
    <symbol id="icon-gg_menu-left" viewBox="0 0 32 32">
      <path d="M2.667 7.993c0-.733.595-1.327 1.327-1.327h10.68a1.326 1.326 0 0 1 0 2.654H3.994a1.326 1.326 0 0 1-1.327-1.327zm0 8.007c0-.733.595-1.327 1.327-1.327h24.013a1.326 1.326 0 0 1 0 2.654H3.994A1.326 1.326 0 0 1 2.667 16zm1.326 6.68a1.326 1.326 0 0 0 0 2.654h16.013a1.326 1.326 0 0 0 0-2.654H3.993z"/>
    </symbol>
    <symbol id="icon-Rectangle-1" viewBox="0 0 28 32">
      <path d="M0 11.826v11.826h27.826v-23.652h-13.774l-0.557 11.409-0.417 11.548-0.278-11.548-0.278-11.409h-12.522v11.826zM20.591 7.93c1.53 2.226 3.2 5.287 3.617 6.957 0.974 2.783 0.557 3.2-3.2 3.2-4.174 0-4.313-0.139-4.313-6.957 0-3.896 0.278-6.957 0.557-6.957 0.417 0 1.809 1.67 3.339 3.757zM9.739 15.304c0 3.478-0.557 4.174-3.478 4.174-4.313 0-4.313-0.974-0.417-5.148 3.757-4.035 3.896-4.035 3.896 0.974z"></path>
      <path d="M0 28.522c0 1.948 0.557 3.478 1.391 3.478 0.696 0 0.974-0.974 0.557-2.087-0.696-1.809 1.113-2.087 12.104-2.087 12.104 0.139 12.8 0.278 9.6 2.087l-3.478 1.948 3.896 0.139c3.061 0 3.757-0.557 3.757-3.478v-3.478h-27.826v3.478z"></path>
    </symbol>
    <symbol id="icon-menu" viewBox="0 0 32 32">
      <path fill="#f6f5ef" style="fill:var(--color1, #f6f5ef)" d="M2.667 7.993c0-.733.595-1.327 1.327-1.327h10.68a1.326 1.326 0 0 1 0 2.654H3.994a1.326 1.326 0 0 1-1.327-1.327zm0 8.007c0-.733.595-1.327 1.327-1.327h24.013a1.326 1.326 0 0 1 0 2.654H3.994A1.326 1.326 0 0 1 2.667 16zm1.326 6.68a1.326 1.326 0 0 0 0 2.654h16.013a1.326 1.326 0 0 0 0-2.654H3.993z"/>
    </symbol>
    <symbol id="icon-x" viewBox="0 0 32 32">
      <path fill="none" stroke="#f6f5ef" style="stroke:var(--color1, #f6f5ef)" stroke-linejoin="round" stroke-linecap="round" stroke-width="1.733" d="M24 8 8 24M8 8l16 16"/>
    </symbol>
  </defs>
  </svg>
  