<svg aria-hidden="true" style="position: absolute; width: 0; height: 0; overflow: hidden;" version="1.1"
    xmlns="http://www.w3.org/2000/svg" xmlns:xlink="http://www.w3.org/1999/xlink">
    <defs>
        <symbol id="swiper-bg-img" viewBox="0 0 1508 1611">
            <path stroke="#F6F5EF" stroke-width="1.458"
                d="M370.237 258.855c-52.059 20.623-148.499 99.543-117.792 250.242 38.384 188.373 223.059 292.81 293.468 467.659 51.967 129.054 101.354 459.034-62.15 613.094"
                opacity=".053" />
            <path stroke="#F6F5EF" stroke-width="1.458"
                d="M472.552 247.938c-54.579 15.784-160.695 85.347-148.525 237.323 15.213 189.971 186.996 309.854 235.888 489.285 36.086 132.434 44.889 463.624-137.511 601.624"
                opacity=".105" />
            <path stroke="#F6F5EF" stroke-width="1.458"
                d="M574.32 244.402c-56.209 10.77-170.252 70.202-176.752 221.767-8.123 189.457 148.035 323.454 174.694 505.472 19.677 134.339-12.107 463.059-210.388 583.459"
                opacity=".158" />
            <path stroke="#F6F5EF" stroke-width="1.458"
                d="M1301.95 281.488C709.415 34.6 496.614 302.384 471.536 451.9 440.189 638.796 579.95 785.459 584.303 968.099c3.213 134.801-68.867 457.491-281.94 559.001"
                opacity=".211" />
            <path stroke="#F6F5EF" stroke-width="1.458"
                d="M1261.97 299.711c-438.935-187.527-672.915-3.17-716.29 142.631-54.219 182.252 67.408 339.948 49.372 521.173-13.313 133.755-124.862 446.825-350.135 528.305"
                opacity=".263" />
            <path stroke="#F6F5EF" stroke-width="1.458"
                d="M1253.27 309.577c-275.78-121.752-572.538-12.506-633.737 127.984-76.498 175.612 25.661 342.61-14.571 520.438-29.694 131.251-179.494 431.271-414.501 491.831"
                opacity=".316" />
            <path stroke="#F6F5EF" stroke-width="1.458"
                d="M1250.31 325.668c-214.22-88.65-479.441-21.835-557.795 111.806-97.942 167.051-16.372 341.521-78.36 514.002-45.752 127.304-232.166 410.994-474.333 449.974"
                opacity=".368" />
            <path stroke="#F6F5EF" stroke-width="1.458"
                d="M1275.38 359.295c-192.63-100.165-416.673-42.663-511.327 82.666-118.316 156.662-58.23 336.691-141.299 501.939-61.31 121.96-282.303 386.22-528.98 403.2"
                opacity=".421" />
            <path stroke="#F6F5EF" stroke-width="1.458"
                d="M1292.85 389.193c-212.77-61.759-349.353-53.996-459.27 61.649-137.397 144.556-99.456 328.17-202.697 484.373C554.684 1050.5 301.532 1292.43 53.049 1287.23"
                opacity=".474" />
            <path stroke="#F6F5EF" stroke-width="1.458"
                d="M1211.07 406.382c-51.85-24.453-186.53-47.187-310.51 57.507C745.587 594.756 760.964 779.94 638.681 925.386c-90.255 107.354-372.794 324.294-620.36 296.974"
                opacity=".526" />
            <path stroke="#F6F5EF" stroke-width="1.458"
                d="M1281.71 451.614c-48.79-28.837-180.53-63.362-317.217 29.237-170.854 115.748-178.212 300.473-318.202 433.573C542.968 1012.66 234.129 1202.25-9.811 1153.12"
                opacity=".579" />
            <path stroke="#F6F5EF" stroke-width="1.458"
                d="M1345.34 500.749c-45.2-32.902-172.56-78.836-320.45.654-184.865 99.362-214.88 281.601-371.044 400.895-115.261 88.048-447.015 248.212-684.653 177.812"
                opacity=".632" />
            <path stroke="#F6F5EF" stroke-width="1.458"
                d="M1401.48 553.123c-41.11-36.606-162.69-93.44-320.17-27.929-196.847 81.888-249.192 259.637-419.82 363.819C535.554 965.907 184.517 1094.9-44.214 1004"
                opacity=".684" />
            <path stroke="#F6F5EF" stroke-width="1.458"
                d="M1449.75 608.032c-36.57-39.904-151.04-107.007-316.38-56.192-206.678 63.519-280.782 234.821-464.005 322.748-135.232 64.897-501.705 161.302-719.021 50.924"
                opacity=".737" />
            <path stroke="#F6F5EF" stroke-width="1.458"
                d="M1489.83 664.738c-31.63-42.757-137.73-119.379-309.12-83.814-214.246 44.457-309.299 207.417-503.111 278.124-143.047 52.188-520.942 114.955-724.46-13.664"
                opacity=".789" />
            <path stroke="#F6F5EF" stroke-width="1.458"
                d="M1521.52 722.473c-26.33-45.126-122.9-130.395-298.47-110.463-219.46 24.915-334.427 177.707-536.705 230.417-149.296 38.905-534.473 67.366-721.962-78.032"
                opacity=".842" />
            <path stroke="#F6F5EF" stroke-width="1.458"
                d="M1544.7 780.68c-20.76-47.294-106.74-140.85-284.56-136.723-222.28 5.158-355.894 147.013-564.422 181.388-153.909 25.372-542.148 19.223-711.553-142.349"
                opacity=".895" />
            <path stroke="#F6F5EF" stroke-width="1.458"
                d="M1559.23 838.439c-14.96-48.622-89.39-148.819-267.49-160.637-222.63-14.773-373.414 113.548-585.881 128.895-156.816 11.326-543.814-29.466-693.256-204.378"
                opacity=".947" />
            <path stroke="#F6F5EF" stroke-width="1.458"
                d="M1565.37 894.934c-8.98-49.452-71.07-155.261-247.52-182.872-220.57-34.514-386.887 79-600.992 75.2-158.025-2.804-539.593-77.756-667.456-264.206" />
        </symbol>
    </defs>
</svg>